<svg width="24" height="24" viewBox="0 0 24 24" fill="none" xmlns="http://www.w3.org/2000/svg">
<mask id="mask0_473_5169" style="mask-type:alpha" maskUnits="userSpaceOnUse" x="0" y="0" width="24" height="24">
<rect width="24" height="24" fill="#D9D9D9"/>
</mask>
<g mask="url(#mask0_473_5169)">
<path d="M17.0236 22.2034C16.1388 22.2034 15.3868 21.8943 14.7676 21.2761C14.1483 20.658 13.8386 19.9073 13.8386 19.0241C13.8386 18.9281 13.8616 18.7127 13.9076 18.3779L7.08588 14.4034C6.80737 14.6494 6.48929 14.8422 6.13162 14.9819C5.77396 15.1215 5.39079 15.1914 4.98213 15.1914C4.09729 15.1914 3.34521 14.8813 2.72587 14.2611C2.10654 13.6408 1.79688 12.8876 1.79688 12.0016C1.79688 11.1155 2.10654 10.3618 2.72587 9.74062C3.34521 9.11946 4.09729 8.80887 4.98213 8.80887C5.39013 8.80887 5.77512 8.87971 6.13712 9.02137C6.49912 9.16304 6.82138 9.35887 7.10388 9.60887L13.9019 5.64637C13.8724 5.53771 13.8545 5.43021 13.8481 5.32388C13.8418 5.21754 13.8386 5.10363 13.8386 4.98213C13.8386 4.09729 14.1484 3.34521 14.7679 2.72588C15.3874 2.10654 16.1395 1.79688 17.0244 1.79688C17.9094 1.79688 18.6615 2.10662 19.2806 2.72612C19.8998 3.34546 20.2094 4.09762 20.2094 4.98262C20.2094 5.86746 19.8997 6.61946 19.2804 7.23862C18.661 7.85796 17.909 8.16763 17.0241 8.16763C16.6066 8.16763 16.2153 8.09479 15.8501 7.94913C15.485 7.80346 15.161 7.60162 14.8784 7.34363L8.10438 11.2821C8.13771 11.403 8.15854 11.5195 8.16688 11.6319C8.17521 11.744 8.17938 11.8678 8.17938 12.0031C8.17938 12.1385 8.17421 12.2643 8.16388 12.3806C8.15354 12.497 8.13171 12.6154 8.09837 12.7359L14.8664 16.6746C15.149 16.4126 15.4742 16.2068 15.8419 16.0571C16.2097 15.9075 16.6038 15.8326 17.0241 15.8326C17.909 15.8326 18.661 16.1428 19.2804 16.7631C19.8997 17.3835 20.2094 18.1366 20.2094 19.0226C20.2094 19.9088 19.8996 20.6605 19.2801 21.2776C18.6608 21.8948 17.9086 22.2034 17.0236 22.2034ZM17.0204 19.9881C17.2942 19.9881 17.525 19.8951 17.7126 19.7091C17.9003 19.5231 17.9941 19.2926 17.9941 19.0176C17.9941 18.7426 17.9006 18.5122 17.7136 18.3264C17.5265 18.1407 17.2946 18.0479 17.0181 18.0479C16.745 18.0479 16.516 18.1417 16.3311 18.3294C16.1463 18.517 16.0539 18.7466 16.0539 19.0181C16.0539 19.2895 16.1465 19.519 16.3319 19.7066C16.517 19.8943 16.7465 19.9881 17.0204 19.9881ZM4.98263 12.9761C5.25763 12.9761 5.48996 12.8827 5.67963 12.6959C5.86946 12.509 5.96438 12.2775 5.96438 12.0014C5.96438 11.7252 5.86946 11.4933 5.67963 11.3056C5.48996 11.118 5.25763 11.0241 4.98263 11.0241C4.70762 11.0241 4.47713 11.1175 4.29113 11.3044C4.10512 11.4912 4.01212 11.7227 4.01212 11.9989C4.01212 12.275 4.10512 12.507 4.29113 12.6946C4.47713 12.8823 4.70762 12.9761 4.98263 12.9761ZM17.0241 5.95238C17.2955 5.95238 17.524 5.85971 17.7096 5.67437C17.8953 5.48921 17.9881 5.25971 17.9881 4.98587C17.9881 4.71204 17.8955 4.48129 17.7104 4.29362C17.525 4.10596 17.2955 4.01212 17.0216 4.01212C16.7478 4.01212 16.517 4.10563 16.3294 4.29263C16.1417 4.47979 16.0479 4.71163 16.0479 4.98813C16.0479 5.26129 16.1427 5.49029 16.3324 5.67513C16.522 5.85996 16.7526 5.95238 17.0241 5.95238Z" fill="#1C1B1F"/>
</g>
</svg>
